<?xml version="1.0" encoding="utf-8"?>
<!-- Generator: Adobe Illustrator 19.0.1, SVG Export Plug-In . SVG Version: 6.00 Build 0)  -->
<svg version="1.1" id="digital_x5F_marketing" xmlns="http://www.w3.org/2000/svg" xmlns:xlink="http://www.w3.org/1999/xlink"
	 x="0px" y="0px" viewBox="0 0 128 128" style="enable-background:new 0 0 128 128;" xml:space="preserve">
<style type="text/css">
	.st0{display:none;fill:#0D0D0D;}
	.st1{fill:#0D0D0D;}
</style>
<g id="row3">
	<path id="icon:5_2_" class="st0" d="M128,64.4v-0.9c0-4.2-3.4-7.7-7.7-7.7h-8.8c-1.2-7.3-4.1-14-8.2-19.8l6.2-6.2c3-3,3-7.9,0-10.9
		l-0.6-0.6c-3-3-7.9-3-10.9,0l-6.2,6.2c-5.8-4.1-12.5-7-19.8-8.2V7.7c0-4.2-3.4-7.7-7.7-7.7h-0.9c-4.2,0-7.7,3.4-7.7,7.7v8.8
		c-7.3,1.2-14,4.1-19.8,8.2l-6.2-6.2c-3-3-7.9-3-10.9,0l-0.6,0.6c-3,3-3,7.9,0,10.9l6.2,6.2c-4.1,5.8-7,12.5-8.2,19.8H7.7
		c-4.2,0-7.7,3.4-7.7,7.7v0.9c0,4.2,3.4,7.7,7.7,7.7h8.8c1.2,7.3,4.1,14,8.2,19.8l-6.2,6.2c-3,3-3,7.9,0,10.9l0.6,0.6
		c3,3,7.9,3,10.9,0l6.2-6.2c5.8,4.1,12.5,7,19.8,8.2v8.8c0,4.2,3.4,7.7,7.7,7.7h0.9c4.2,0,7.7-3.4,7.7-7.7v-8.8
		c7.3-1.2,14-4.1,19.8-8.2l6.2,6.2c3,3,7.9,3,10.9,0l0.6-0.6c3-3,3-7.9,0-10.9l-6.2-6.2c4.1-5.8,7-12.5,8.2-19.8h8.8
		C124.6,72.1,128,68.7,128,64.4z M64,96.6C46,96.6,31.4,82,31.4,64C31.4,46,46,31.4,64,31.4S96.6,46,96.6,64
		C96.6,82,82,96.6,64,96.6z"/>
	<path id="icon:4_1_" class="st0" d="M91.2,80.2l-2,2.4l-11.7-10c13-17.9,10.2-43.1-6.8-57.7C52.8-0.5,25.7,1.6,10.3,19.6
		c-7.4,8.7-11,19.8-10.1,31.2C1,62.2,6.3,72.5,15,80c8,6.9,18,10.3,27.8,10.3c10,0,20.1-3.5,28-10.4l11.9,10.2l-2,2.3l34,29.1
		c3.4,2.9,8.4,2.5,11.3-0.9l0,0c2.9-3.4,2.5-8.4-0.9-11.3L91.2,80.2z M42.8,77.9c-7,0-14.1-2.4-19.8-7.3
		c-6.2-5.3-9.9-12.7-10.6-20.8c-0.6-8.1,2-16,7.2-22.2C25,21.4,32.3,17.6,40.5,17c0.8-0.1,1.6-0.1,2.4-0.1c7.3,0,14.2,2.5,19.8,7.3
		c6.2,5.3,9.9,12.7,10.6,20.8c0.6,8.1-2,16-7.2,22.2C60,74.3,51.5,77.9,42.8,77.9z"/>
	<path id="icon:3_2_" class="st0" d="M54.2,9.8C54.2,4.4,58.6,0,64,0s9.8,4.4,9.8,9.8s-4.4,9.8-9.8,9.8S54.2,15.3,54.2,9.8z M64,128
		c5.4,0,9.8-4.4,9.8-9.8s-4.4-9.8-9.8-9.8s-9.8,4.4-9.8,9.8S58.6,128,64,128z M106.8,29.4c4.8-2.6,10.8-0.9,13.4,3.9
		c2.6,4.8,0.9,10.8-3.9,13.4c-4.8,2.6-10.8,0.9-13.4-3.9C100.3,38,102,32,106.8,29.4z M7.8,94.7c2.6,4.8,8.6,6.5,13.4,3.9
		s6.5-8.6,3.9-13.4s-8.6-6.5-13.4-3.9C7,83.9,5.2,89.9,7.8,94.7z M115.7,82.9c4.7,2.7,6.3,8.8,3.5,13.5s-8.8,6.3-13.5,3.5
		c-4.7-2.7-6.3-8.8-3.5-13.5C105,81.7,111,80.1,115.7,82.9z M8.8,31.7C6,36.4,7.6,42.4,12.3,45.1s10.7,1.2,13.5-3.5
		s1.2-10.7-3.5-13.5S11.5,27,8.8,31.7z M85.7,65c0-3-0.6-5.8-1.7-8.4l15.8-8.9l-1.9-3.4l-15.7,8.8c-3.5-5.4-9.4-9.1-16.1-9.6V23.6
		H62v19.8C55.3,44,49.5,47.7,45.9,53l-15.7-8.9l-1.9,3.4L44,56.5c-1.1,2.6-1.7,5.5-1.7,8.5c0,3.3,0.7,6.4,2,9.2l-16.1,9.1l1.9,3.4
		l16.2-9.1c3.6,5,9.2,8.4,15.6,8.9v18.3H66V86.5c6.4-0.6,12-3.9,15.6-8.9l16.2,9.1l1.9-3.4l-16.1-9.1C84.9,71.4,85.7,68.3,85.7,65z"
		/>
	<path id="icon:2_2_" class="st0" d="M19.9,116H0V68.7h19.9V116z M55.9,11.8H36v104.5h19.9V11.8z M92,28.6H72.1v87.1H92V28.6z
		 M128,11.8h-19.9v104.5H128V11.8z"/>
	<path id="icon:1_2_" class="st0" d="M72.5,115.5H7.7c0-12.4,9.2-22.8,21.1-24.7c-5.3-3.6-8.7-9.7-8.7-16.5c0-11.1,9-20.1,20.1-20.1
		c11.1,0,20.1,9,20.1,20.1c0,6.9-3.4,12.9-8.7,16.5c3,0.5,5.9,1.5,8.4,3C67.4,98,72.5,106.2,72.5,115.5z M103.9,85.2
		c6-4.1,10-11.1,10-18.9c0-12.7-10.3-22.9-22.9-22.9C78.2,43.3,68,53.6,68,66.2c0,7.9,4,14.8,10,18.9c-5.3,0.8-10.1,3.2-14.1,6.6
		c7.6,4.3,12.7,12.5,12.7,21.7H128C128,99.3,117.5,87.4,103.9,85.2z M25.1,27.6v-15H15v15H0v10h15v15h10v-15h15v-10H25.1z"/>
</g>
<g id="row2">
	<path id="icon:5_1_" class="st0" d="M29,97.5c-6-6-15.9-6-21.9,0c-6.1,6-6.1,15.9,0,21.9c6,6,15.9,6,21.9,0
		C35.1,113.3,35.1,103.5,29,97.5z M29,97.5c-6-6-15.9-6-21.9,0c-6.1,6-6.1,15.9,0,21.9c6,6,15.9,6,21.9,0
		C35.1,113.3,35.1,103.5,29,97.5z M62.5,64C46,47.5,22.5,42.1,1.5,47.9v20.6c15.7-6.5,34.5-3.4,47.2,9.3c13.6,13.5,16.2,33.9,8,50.1
		h21.1C84.9,106.3,79.8,81.3,62.5,64z M29,97.5c-6-6-15.9-6-21.9,0c-6.1,6-6.1,15.9,0,21.9c6,6,15.9,6,21.9,0
		C35.1,113.3,35.1,103.5,29,97.5z M29,97.5c-6-6-15.9-6-21.9,0c-6.1,6-6.1,15.9,0,21.9c6,6,15.9,6,21.9,0
		C35.1,113.3,35.1,103.5,29,97.5z M62.5,64C46,47.5,22.5,42.1,1.5,47.9v20.6c15.7-6.5,34.5-3.4,47.2,9.3c13.6,13.5,16.2,33.9,8,50.1
		h21.1C84.9,106.3,79.8,81.3,62.5,64z M94.8,31.7C69.4,6.4,34.5-3.8,1.5,1.3v19.9C29.4,15.8,59.4,24,81,45.6
		c22.4,22.4,30.3,53.7,23.9,82.4h20C130.9,94.2,121,57.9,94.8,31.7z M29,97.5c-6-6-15.9-6-21.9,0c-6.1,6-6.1,15.9,0,21.9
		c6,6,15.9,6,21.9,0C35.1,113.3,35.1,103.5,29,97.5z M62.5,64C46,47.5,22.5,42.1,1.5,47.9v20.6c15.7-6.5,34.5-3.4,47.2,9.3
		c13.6,13.5,16.2,33.9,8,50.1h21.1C84.9,106.3,79.8,81.3,62.5,64z"/>
	<path id="icon:4" class="st0" d="M74,35.3v12.5h21.6v23.6H74c0,26.4,0,56.6,0,56.6H50.3c0,0,0-27.5,0-56.6H30.4V47.8h19.9V30.6
		c0-36.2,47.3-30.3,47.3-30.3v22C97.6,22.4,74,19.5,74,35.3z"/>
	<path id="icon:3_1_" class="st0" d="M128,27.5l-14,12.2C107.9,152.4,0,103.2,0,103.2s30.8,0.3,36.6-7.4c0,0-21.9-10.4-22.7-21.1
		c4.3,0.2,11.5,1.4,12.4,1.5c-1.4-0.6-22-9.1-20.2-28.2l11.9,4c-0.8-0.6-17-13-7.8-35.3c0,0,25.7,26.9,54,28.7
		c-0.5-2-0.8-4.2-0.8-6.4c0-13.8,11.2-25,25-25c7.9,0,14.9,3.6,19.5,9.3l1.6-0.8l12.5-4.6l-9.4,10.7L128,27.5z"/>
	<path id="icon:2_1_" class="st1" d="M0,17.5l0,93.1c0,3.9,3.1,7,7,7h114c3.9,0,7-3.1,7-7V17.5c0-3.8-3.1-7-7-7H7
		C3.1,10.5,0,13.6,0,17.5z M125.3,66c0,2.6-2.1,4.7-4.7,4.7c-2.6,0-4.7-2.1-4.7-4.7s2.1-4.7,4.7-4.7C123.2,61.4,125.3,63.5,125.3,66
		z M112.5,23.3v81.5H12.5V23.3H112.5z M29.9,35.8c3.9,0,7,3.1,7,7c0,1.7-0.6,3.2-1.6,4.4l11.7,19.1c0.5-0.1,1-0.2,1.5-0.2
		c1.9,0,3.6,0.7,4.8,2l16.2-8.1c0-0.3-0.1-0.6-0.1-0.9c0-3.9,3.1-7,7-7c3.9,0,7,3.1,7,7c0,1.6-0.5,3-1.4,4.2l11.3,17
		c0.6-0.2,1.1-0.2,1.7-0.2c3.9,0,7,3.1,7,7c0,3.9-3.1,7-7,7c-3.9,0-7-3.1-7-7c0-1.6,0.5-3,1.4-4.2l-11.3-17C77.6,66,77.1,66,76.5,66
		c-1.9,0-3.6-0.7-4.8-2l-16.2,8.1c0,0.3,0.1,0.6,0.1,0.9c0,3.9-3.1,7-7,7c-3.9,0-7-3.1-7-7c0-1.7,0.6-3.2,1.6-4.4L31.4,49.6
		c-0.5,0.1-1,0.2-1.5,0.2c-3.9,0-7-3.1-7-7S26,35.8,29.9,35.8z"/>
	<path id="icon:1_1_" class="st0" d="M64,67.4L4.2,20.5h119.7L64,67.4z M128,104.3V23.8L64,73.9L0,23.8v79.1l27.7-37.2l4.1,3.1
		L2.9,107.5h121L95.1,68.7l4.1-3.1L128,104.3z"/>
</g>
<g id="row1">
	<path id="icon:5" class="st0" d="M91.5,38.6l16.3,32.7H28.4V128h-8.3V4.1C20.1,1.9,22,0,24.3,0h0c2.3,0,4.1,1.9,4.1,4.1v1.8h79.5
		L91.5,38.6z"/>
	<path id="icon4" class="st0" d="M128,113.6H0V14.4h128V113.6z M4.7,92.6h118.7V19.1H4.7V92.6z M76.7,50.3L54.4,35.4v29.7L76.7,50.3
		z M52.3,90.2c-3.6,0-6.5-2.6-7.1-6H8.7v-2.3h36.5c0.6-3.4,3.5-6,7.1-6c3.6,0,6.5,2.6,7.1,6h59.9v2.3H59.4
		C58.8,87.6,55.9,90.2,52.3,90.2z M52.3,78.2c-2.7,0-4.9,2.2-4.9,4.9c0,2.7,2.2,4.9,4.9,4.9s4.9-2.2,4.9-4.9
		C57.2,80.4,55,78.2,52.3,78.2z"/>
	<path id="icon:3" class="st0" d="M105.3,35.8v58.4c0,2.3-1.9,4.1-4.1,4.1H36L18.4,119V98.4H4.1c-2.3,0-4.1-1.9-4.1-4.1V35.8
		c0-2.3,1.9-4.1,4.1-4.1h97C103.4,31.7,105.3,33.6,105.3,35.8z M123.9,9h-97c-2.3,0-4.1,1.9-4.1,4.1v14.5h82.6
		c2.3,0,4.1,1.9,4.1,4.1v43.9h14.5c2.3,0,4.1-1.9,4.1-4.1V13.1C128,10.8,126.1,9,123.9,9z"/>
	<path id="icon:2" class="st0" d="M128,57.9c0-6-4.9-10.8-10.8-10.8h-41c0-2.9,0-8.3,0.1-15.4C76.4,27,76,15.4,69.8,9
		C67.2,6.3,63.9,5,60.1,5c0,0,0,0,0,0c-5.9,0-6.7,7.4-7.6,15.2c-0.6,5.3-1.3,11.3-3.3,15.6C45.6,43.5,36,46.4,33.8,47v-3.5H0V123
		h33.8v-6h64.1c6,0,10.8-4.9,10.8-10.8c0-1.4-0.3-3.1-1.4-4.7c3.6-1.8,6.2-5.5,6.2-9.8c0-2.3-0.7-4.4-2-6.2
		c5.2-0.8,9.2-5.3,9.2-10.7c0-2.3-0.7-4.4-2-6.2C124,67.8,128,63.3,128,57.9z M20.9,113.1c-4,0-7.2-3.2-7.2-7.2c0-4,3.2-7.2,7.2-7.2
		s7.2,3.2,7.2,7.2C28.1,109.9,24.9,113.1,20.9,113.1z M117.2,63.9h-14.5v4.8h7.2c3.3,0,6,2.7,6,6s-2.7,6-6,6h-7.2v4.8
		c3.3,0,6,2.7,6,6s-2.7,6-6,6h-4.8v4.8c6,0,6,2.5,6,3.6c0,3.3-2.7,6-6,6H36.2V51.3c4.1-1.2,13.4-4.9,17.4-13.4
		c2.4-5.1,3.1-11.5,3.7-17.2c0.2-2,0.5-4.8,1-7c0.5-2.2,1-3.9,1.8-3.9c2.5,0,4.6,0.8,6.3,2.6c3.4,3.5,5.3,10.6,5.1,19.1
		c-0.3,10.9-0.1,18-0.1,18l0.1,2.3h45.7c3.3,0,6,2.7,6,6S120.5,63.9,117.2,63.9z"/>
	<path id="icon:1" class="st0" d="M116.2,3v3.2L64,30.1H8.6v3.4C3.7,35,0,42.4,0,51.3C0,60.2,3.7,67.5,8.6,69v3.4H18l9.5,51.2
		L52,125V72.5h12l52.2,23.8v3.2h6.6c2.9,0,5.3-2.4,5.3-5.3v-86c0-2.9-2.4-5.3-5.3-5.3H116.2z M64,66.7V35.9L116.2,12v78.5L64,66.7z"
		/>
</g>
</svg>
