<svg xmlns="http://www.w3.org/2000/svg" viewBox="0 0 316.68 375.45"><defs><style>.a{fill:#fffffe;}</style></defs><title>csr</title><path class="a" d="M27.55,130.8c14.55,25.47,16.48-14,18-24.49C78.56-23.89,255.52-8,272.84,117c1.33,8.93-1.54,25.44,12.38,20.42,14.8-18.67-12.94-72.84-19.35-80.7C189-50.39,29,5.38,27.55,130.8Z"/><path class="a" d="M11.84,132.11c45.8-10.78,53.32-17.43,51.26,40.2,3.19,63.1-13.49,48.68-53.22,30.32l3.18-7-3.21,7c-8.27-4.5-3.12-22.89-4.48-44.28C6,142.29,2.5,135.37,11.84,132.11ZM47,139.75l-26.3,6v45L47.27,203C47.9,200,48.6,142.75,47,139.75Z"/><path class="a" d="M295.84,145.79l-26.3-6c-1.49,2.75-.94,60-.23,63.23l26.53-12.2v-45Zm-23.51-21.13c37.52,9.78,40,2.7,38.87,27.53-1.25,26.4,3.64,46.43-4.47,50.46l-3.21-7,3.18,7c-37.56,17.5-55.62,31.94-53.22-23.63C254.75,147.91,246.91,123.83,272.33,124.66Z"/><path class="a" d="M99.36,251.79c32-23.57-40.61-9.7-47.47-21.5-17.7-11.92-8.27-29.27-18.64-32.92-21.74-1.91-2.52,37.65,6,42.38C55.26,255.8,80.4,251.19,99.36,251.79Z"/><path class="a" d="M158.29,50.52c147.1,13.86,71.15,208.77,0,207.15-35.63.09-64.1-41.74-76.5-77.88C55.34,111.75,94.69,52.21,158.29,50.52ZM207.5,86.26C186,62.93,142.72,58.84,116.77,79.61,31,145.42,169.13,352.75,224.12,162.27,231.87,136.38,228,106.14,207.5,86.26Z"/><path class="a" d="M293.2,359.31c-84-95.66-197.14-83.87-269.82,0Zm-49.47-60c138.16,96.77,46,72.59.16,75.36H7.58c-4.57.55-10.22-6.86-6.22-12.2h0C62.49,280,161.09,252.57,243.73,299.3Z"/><path class="a" d="M85.27,118.68c-38.1,20,46.32,24.11,64.69-4.92,35.49,31.31,101.88,10.58,82.27-6.05-78.26,21.68-69.69-22.5-88.86-9.6h0C130.64,114.37,107.44,123.9,85.27,118.68Z"/></svg>