<svg xmlns="http://www.w3.org/2000/svg" xmlns:xlink="http://www.w3.org/1999/xlink" viewBox="0 0 147.54 193.17"><defs><style>.a{fill:#f1f1f1;}.b{fill:#e5e5e5;}.c{fill:url(#a);}.d{fill:url(#b);}.e{fill:#6835fb;}.f{fill:url(#c);}.g{fill:url(#d);}</style><linearGradient id="a" x1="30.93" y1="158.5" x2="115.75" y2="158.5" gradientUnits="userSpaceOnUse"><stop offset="0" stop-color="#427dff"/><stop offset="1" stop-color="#6835fb"/></linearGradient><linearGradient id="b" x1="19.32" y1="83.19" x2="32.68" y2="83.19" gradientUnits="userSpaceOnUse"><stop offset="0" stop-color="#906eff"/><stop offset="1" stop-color="#6835fb"/></linearGradient><linearGradient id="c" x1="81.24" y1="105.98" x2="121.26" y2="105.98" xlink:href="#b"/><linearGradient id="d" x1="114.01" y1="83.19" x2="127.37" y2="83.19" xlink:href="#b"/></defs><title>csr_1</title><path d="M136.47,129c-14.85,27.55-101.81,19.64-120.22,7.68C-3.08,123.55,24.19,25.65,29.59,25,41,4.62,65.36-4.9,89.87,2.49,127.29,14.44,135.86,68.21,136.47,129Z"/><path class="a" d="M96.61,129.1V113H50.08C59,159.18-4.12,131.91.24,169.9c.9,13.54-3,17.81,4.54,22.54,2.94,1.82,114.68-.42,133.25.34,11.13,3.27,10.59-23.86,5.92-36.67C134.86,141.2,96.76,145.29,96.61,129.1Z"/><path class="b" d="M50.08,129.1A10,10,0,0,1,44,138.25c36.31,6.21,53-20,52.61-20.25v-5H50.08Z"/><path d="M135.09,149.11l-25.88-8.62c-12.31,16.71-26.69,26-35.87,29-9.17-3-23.55-12.32-35.86-29C19.53,146.62-1.64,150,.24,166.3-1.07,198,2.89,192,15.36,192.78c33.4-.37,122,.68,126.54-.34C152.58,186.43,146.83,149.56,135.09,149.11Z"/><path class="c" d="M32.13,144.43c13.95,18.63,29.27,28.5,41.21,32.08,11.84-3.35,29.14-14.8,42.41-33.84l-6.54-2.18c-12.31,16.71-26.69,26-35.86,29-9.18-3-23.56-12.32-35.87-29l-6.55,2.18Z"/><path class="d" d="M30.7,69.86c-15.83-3.59-15.12,32,2,26.3Z"/><path class="e" d="M26.84,69.85h0V96.26c.16,0,4.79-.09,5.86-.1l-2-26.3Z"/><path class="a" d="M116.3,61.08s-9.72-3.93-15.12-17.34c-4.87,2.94-33.26,15.63-70.93,16.39,1,45.2,2.77,54.12,40.51,67.88,53.25-7.49,43.37-48,45.68-66.93Z"/><path class="f" d="M119.73,96.72l-5.7-.11c-2.53,4.61-10.13,12.15-32.79,12.15v6.65c30.27,0,38.05-12.91,40-18.85A7,7,0,0,1,119.73,96.72Z"/><path class="e" d="M78.33,116.79c-3,.35-7.61-.1-8.31-5h0c0-5.72,12.24-7.93,13.29,0h0A5,5,0,0,1,78.33,116.79Z"/><path class="g" d="M116,69.86c15.84-3.59,15.12,32-2,26.3Z"/><path class="e" d="M119.84,69.85h0V96.26c-.17,0-4.78-.09-5.86-.1l2-26.3Z"/></svg>