<svg xmlns="http://www.w3.org/2000/svg" viewBox="0 0 52 58"><defs><style>.a{fill:#0d0d0d;}</style></defs><title>omni</title><path class="a" d="M21.54,4.46A4.46,4.46,0,1,1,26,8.92,4.46,4.46,0,0,1,21.54,4.46ZM26,58a4.46,4.46,0,1,0-4.46-4.46A4.46,4.46,0,0,0,26,58ZM45.4,13.32a4.46,4.46,0,1,1-1.78,6.06A4.45,4.45,0,0,1,45.4,13.32ZM.55,42.9a4.46,4.46,0,1,0,1.77-6A4.45,4.45,0,0,0,.55,42.9Zm48.88-5.36a4.46,4.46,0,1,1-6.1,1.6A4.46,4.46,0,0,1,49.43,37.54ZM1,14.35a4.46,4.46,0,1,0,6.1-1.59A4.46,4.46,0,0,0,1,14.35Zm34.85,15.1A9.78,9.78,0,0,0,35,25.62l7.16-4-.88-1.55-7.12,4a9.78,9.78,0,0,0-7.31-4.37v-9H25.11v9A9.72,9.72,0,0,0,17.82,24L10.7,20l-.88,1.56,7.14,4a9.87,9.87,0,0,0,.15,8L9.8,37.74l.88,1.55L18,35.17a9.81,9.81,0,0,0,7.09,4v8.3h1.78v-8.3a9.78,9.78,0,0,0,7.07-4l7.34,4.14.88-1.55-7.3-4.12A9.86,9.86,0,0,0,35.82,29.45Z"/></svg>